<?xml version="1.0" standalone="no"?>
<!DOCTYPE svg PUBLIC "-//W3C//DTD SVG 20010904//EN"
 "http://www.w3.org/TR/2001/REC-SVG-20010904/DTD/svg10.dtd">
<svg version="1.0" xmlns="http://www.w3.org/2000/svg"
 width="512.000000pt" height="512.000000pt" viewBox="0 0 512.000000 512.000000"
 preserveAspectRatio="xMidYMid meet">

<g transform="translate(0.000000,512.000000) scale(0.100000,-0.100000)"
fill="#000000" stroke="none">
<path d="M2203 5108 c-38 -18 -43 -58 -43 -334 l0 -264 -67 0 c-146 -1 -241
-95 -218 -217 9 -51 76 -115 139 -133 55 -15 150 -9 192 13 38 20 84 66 95 95
5 13 9 152 9 309 l0 286 104 -101 c79 -77 111 -102 131 -102 38 0 60 15 74 49
19 44 2 67 -182 249 -170 168 -182 175 -234 150z m-52 -764 c11 -14 10 -18 -6
-30 -25 -18 -86 -18 -111 1 -19 15 -19 15 0 30 27 20 100 20 117 -1z"/>
<path d="M256 5074 c-97 -31 -179 -101 -223 -194 -23 -46 -27 -69 -28 -141 0
-79 3 -91 37 -161 46 -92 146 -191 237 -235 l60 -29 -54 -54 c-55 -54 -65 -81
-49 -125 9 -22 59 -46 81 -39 10 4 53 41 95 82 l76 75 46 -27 c25 -14 48 -31
51 -37 4 -6 -20 -39 -54 -74 -63 -65 -69 -81 -49 -118 36 -68 77 -63 160 20
37 37 69 65 71 62 5 -6 784 -838 836 -891 l45 -48 -22 -37 c-182 -306 -226
-608 -136 -922 47 -161 169 -374 274 -476 l40 -39 58 13 c88 20 179 25 241 11
60 -13 204 -78 199 -90 -2 -4 -115 -125 -253 -269 -260 -271 -302 -327 -331
-434 -18 -68 -18 -178 1 -268 l15 -71 -127 -134 c-260 -272 -303 -322 -303
-349 0 -34 42 -75 76 -75 33 0 9 -24 713 712 293 307 536 558 540 558 15 0 70
-136 85 -212 28 -137 15 -278 -38 -408 -14 -35 -26 -75 -26 -88 0 -67 227
-288 405 -394 218 -131 516 -192 760 -158 298 43 536 175 834 465 294 285 442
524 503 810 19 92 16 343 -6 443 -38 175 -112 341 -213 477 -72 96 -255 276
-301 294 -30 13 -39 11 -110 -17 -42 -17 -105 -36 -140 -42 -90 -18 -269 -8
-352 20 -76 25 -182 80 -178 91 2 4 278 292 615 639 564 581 615 636 648 703
63 130 68 204 26 410 -36 174 -36 172 -72 187 -59 25 -116 -23 -103 -88 5 -27
-43 -79 -712 -771 l-718 -742 -27 53 c-52 103 -60 209 -28 352 l14 58 -55 51
c-59 54 -184 139 -265 180 -338 169 -767 152 -1100 -46 l-60 -36 -35 33 c-19
18 -226 210 -460 426 -234 216 -432 399 -440 406 -12 12 -7 22 42 72 31 31 61
67 67 79 21 42 -24 103 -76 103 -14 0 -48 -24 -88 -61 -36 -34 -67 -60 -69
-58 -2 2 -17 24 -34 49 l-30 45 79 82 c83 87 92 109 63 151 -38 54 -87 45
-158 -27 l-48 -49 -35 69 c-95 191 -319 307 -487 253z m166 -148 c44 -16 112
-66 147 -109 13 -16 41 -71 62 -123 21 -51 59 -130 85 -174 52 -87 179 -239
244 -291 22 -18 40 -37 40 -44 0 -6 -20 -31 -45 -55 l-44 -44 -85 86 c-145
147 -275 234 -424 283 -175 57 -287 220 -238 348 40 105 155 160 258 123z
m4548 -807 c0 -26 -9 -77 -20 -113 -17 -53 -33 -79 -83 -133 -60 -66 -995
-1032 -1124 -1163 l-64 -65 -55 59 -54 59 158 161 c86 89 397 410 691 714 370
383 537 549 543 540 4 -7 8 -34 8 -59z m-3362 -491 c268 -249 574 -533 680
-632 l193 -179 -97 -98 c-54 -55 -101 -95 -105 -91 -3 4 -288 307 -632 674
-345 367 -627 671 -627 675 0 7 91 103 98 103 1 0 222 -203 490 -452z m1257
-107 c149 -39 424 -194 409 -231 -16 -40 -16 -200 0 -274 58 -260 346 -582
611 -681 183 -70 416 -74 594 -11 24 9 49 16 55 16 22 0 164 -140 226 -221 77
-103 143 -239 177 -365 23 -87 26 -119 27 -259 0 -132 -4 -175 -21 -246 -42
-168 -131 -337 -237 -454 l-46 -50 -172 175 c-186 188 -279 298 -407 480 -112
158 -114 160 -152 160 -29 0 -52 -20 -201 -167 -93 -93 -171 -178 -175 -191
-10 -42 14 -69 134 -150 180 -123 321 -240 510 -426 132 -128 170 -172 162
-182 -5 -7 -34 -31 -63 -53 l-52 -40 -64 61 c-229 217 -461 298 -692 239 -140
-36 -246 -100 -380 -229 -84 -81 -89 -84 -110 -70 -42 28 -124 102 -181 164
l-57 61 25 72 c84 248 45 528 -105 752 -50 74 -176 202 -270 274 -92 70 -232
140 -325 160 -75 17 -215 17 -270 0 -46 -14 -201 255 -247 425 -18 68 -22 112
-22 225 -1 136 6 186 41 300 19 61 102 235 112 235 5 0 127 -126 272 -281 145
-154 271 -285 281 -290 41 -22 60 -9 227 152 165 160 195 198 185 237 -3 11
-136 141 -295 288 -328 304 -309 268 -175 329 73 34 187 69 275 86 82 14 308
3 396 -20z m-386 -2105 c9 -11 -51 -79 -331 -372 l-343 -357 -3 59 c-5 78 12
150 46 201 16 24 140 160 276 303 l248 260 48 -40 c26 -22 52 -46 59 -54z
m1521 -161 c115 -158 201 -257 384 -443 l170 -172 -37 -37 -37 -37 -47 45
c-27 24 -109 103 -183 174 -141 136 -285 256 -420 351 -44 31 -80 59 -80 62 0
13 164 171 171 164 3 -4 39 -52 79 -107z m-206 -763 c33 -12 84 -36 114 -54
54 -33 192 -153 192 -168 0 -13 -118 -61 -218 -87 -127 -34 -349 -38 -482 -10
-91 20 -240 73 -240 87 0 12 122 124 175 160 52 36 120 67 185 86 65 19 202
12 274 -14z"/>
<path d="M3069 2497 c-76 -29 -129 -85 -129 -137 0 -29 44 -70 74 -70 13 0 43
16 66 35 23 19 51 35 62 35 14 0 88 -66 207 -183 193 -190 218 -207 298 -207
79 0 183 69 198 132 6 22 1 33 -23 58 -39 39 -61 38 -112 -5 -71 -59 -73 -58
-265 138 -93 96 -185 182 -204 192 -45 23 -127 29 -172 12z"/>
<path d="M2704 2161 c-80 -49 -117 -175 -79 -269 10 -24 77 -97 197 -213 175
-171 181 -178 175 -209 -4 -17 -20 -44 -37 -60 -35 -33 -38 -67 -9 -104 40
-51 116 -25 163 57 32 55 40 112 25 173 -10 45 -25 63 -195 230 -162 160 -184
185 -184 213 0 23 9 40 32 61 39 36 42 79 8 115 -28 30 -54 31 -96 6z"/>
<path d="M3880 4800 c-161 -94 -296 -173 -299 -176 -3 -3 -8 -137 -11 -297
l-5 -291 -57 3 c-78 3 -135 -16 -184 -64 -73 -69 -73 -161 0 -231 106 -101
308 -79 370 41 20 38 21 58 24 395 l3 355 191 110 c105 61 195 112 199 113 5
2 9 -86 9 -196 l0 -201 -64 1 c-178 1 -285 -155 -190 -279 89 -117 308 -105
385 21 18 29 19 55 19 429 0 384 -1 398 -20 417 -11 11 -33 20 -48 20 -18 0
-133 -61 -322 -170z m237 -600 c2 0 3 -7 3 -15 0 -32 -66 -45 -115 -23 -28 13
-31 21 -12 36 18 15 57 19 92 10 16 -4 31 -8 32 -8z m-571 -325 c19 -15 19
-15 0 -30 -11 -8 -36 -15 -56 -15 -20 0 -45 7 -56 15 -19 15 -19 15 0 30 11 8
36 15 56 15 20 0 45 -7 56 -15z"/>
<path d="M625 3044 c-160 -92 -298 -173 -307 -182 -16 -14 -18 -41 -18 -301
l0 -287 -72 1 c-125 0 -212 -62 -225 -164 -12 -91 73 -180 188 -196 60 -8 146
15 189 51 65 55 64 53 70 448 l5 358 190 110 c105 61 196 112 203 115 10 4 12
-36 10 -196 l-3 -202 -75 -3 c-88 -3 -145 -27 -184 -79 -68 -89 -31 -209 79
-258 100 -46 247 -11 302 72 l28 43 0 394 0 394 -28 24 c-15 13 -36 24 -45 24
-10 0 -148 -75 -307 -166z m210 -608 c16 -12 17 -16 6 -30 -23 -28 -131 -16
-131 15 0 26 94 38 125 15z m-571 -316 c34 -13 33 -35 -3 -50 -50 -20 -132 11
-99 37 30 23 64 28 102 13z"/>
<path d="M823 1450 c-12 -5 -26 -18 -32 -29 -7 -12 -11 -120 -11 -298 l0 -278
-78 0 c-66 0 -84 -4 -124 -27 -83 -49 -115 -132 -80 -211 69 -156 343 -158
413 -3 17 37 19 69 19 321 l0 280 103 -103 c86 -86 107 -102 134 -102 22 0 38
8 52 26 41 53 34 65 -151 250 -173 174 -200 193 -245 174z m-64 -767 c23 -15
23 -17 6 -30 -11 -7 -37 -13 -60 -13 -23 0 -49 6 -60 13 -17 13 -17 15 6 30
13 10 37 17 54 17 17 0 41 -7 54 -17z"/>
</g>
</svg>
