<?xml version="1.0" standalone="no"?>
<!DOCTYPE svg PUBLIC "-//W3C//DTD SVG 20010904//EN"
 "http://www.w3.org/TR/2001/REC-SVG-20010904/DTD/svg10.dtd">
<svg version="1.0" xmlns="http://www.w3.org/2000/svg"
 width="512.000000pt" height="512.000000pt" viewBox="0 0 512.000000 512.000000"
 preserveAspectRatio="xMidYMid meet">

<g transform="translate(0.000000,512.000000) scale(0.100000,-0.100000)"
fill="#000000" stroke="none">
<path d="M1044 5050 c-114 -30 -254 -110 -328 -189 -22 -23 -39 -31 -65 -31
-182 -1 -356 -151 -390 -334 -7 -38 -16 -55 -38 -70 -145 -101 -232 -279 -220
-451 14 -197 129 -357 317 -437 75 -32 75 -32 291 -38 l217 -5 -70 -105 c-256
-384 -386 -886 -349 -1341 42 -517 242 -968 591 -1333 344 -359 781 -583 1268
-650 147 -21 437 -21 580 -1 221 31 437 96 642 192 85 40 102 45 162 43 49 -1
78 4 108 19 l41 20 147 -133 c81 -73 157 -138 169 -144 39 -21 98 -15 134 15
46 39 97 124 110 182 19 90 1 139 -111 307 -55 82 -99 153 -97 158 6 18 152
185 159 183 4 -1 108 -114 230 -251 123 -137 235 -258 249 -269 15 -11 46 -21
70 -24 66 -7 104 19 172 118 85 123 104 208 72 315 -8 27 -91 174 -185 328
-93 153 -170 283 -170 287 0 5 27 41 59 80 73 86 135 204 157 295 19 82 14
249 -10 329 -33 109 -106 179 -198 191 l-48 7 0 46 c-1 127 -50 368 -112 551
-42 123 -162 376 -201 424 -32 40 -81 40 -114 2 -12 -15 -23 -33 -23 -40 0 -7
31 -74 69 -147 83 -159 121 -254 162 -398 32 -116 67 -312 70 -404 l3 -59 -72
-28 c-40 -15 -95 -42 -122 -60 -71 -46 -159 -146 -211 -240 -24 -44 -49 -87
-54 -96 -9 -13 -50 -8 -340 41 -224 39 -343 55 -370 51 -119 -19 -186 -64
-264 -180 -76 -113 -85 -163 -39 -229 28 -40 65 -56 396 -174 163 -58 299
-108 302 -110 2 -2 -21 -55 -52 -117 l-56 -113 -149 34 c-180 42 -260 46 -323
16 -87 -40 -170 -152 -170 -230 0 -67 28 -90 233 -190 l183 -90 -1 -44 c0 -24
3 -60 8 -80 l7 -36 -88 -40 c-215 -99 -527 -173 -728 -173 l-61 0 -6 118 c-7
136 -32 235 -84 334 -66 127 -194 236 -318 274 -27 8 -119 22 -204 30 -84 8
-168 21 -186 28 -46 20 -74 61 -161 241 -69 142 -85 167 -143 225 -78 77 -142
113 -247 140 -177 45 -371 9 -507 -95 l-45 -34 -40 123 c-23 68 -50 171 -61
229 -22 114 -49 383 -39 393 3 3 37 -4 75 -15 256 -76 470 -29 627 139 53 57
58 88 21 125 -39 40 -69 33 -138 -32 -105 -96 -219 -133 -350 -114 -100 15
-227 60 -227 80 0 41 32 220 55 313 66 259 200 533 363 741 l45 57 491 0 c542
0 554 1 670 63 126 67 231 211 257 352 13 71 6 183 -16 244 -8 24 -15 45 -15
47 0 2 71 4 158 4 234 0 414 -30 644 -107 102 -34 111 -39 135 -77 81 -128
112 -251 78 -315 -9 -18 -48 -74 -86 -124 -108 -143 -139 -250 -116 -407 6
-47 12 -121 12 -165 0 -101 -30 -169 -110 -244 -124 -118 -301 -149 -442 -79
-64 32 -106 87 -150 191 -49 119 -96 191 -169 255 -62 57 -187 122 -266 141
-141 33 -292 19 -414 -39 -79 -38 -186 -136 -233 -214 -37 -62 -131 -306 -131
-341 0 -58 79 -90 120 -49 11 10 38 69 61 129 22 61 55 136 71 167 97 183 328
263 536 186 143 -53 228 -139 283 -284 37 -101 69 -151 128 -207 258 -241 730
-104 845 244 29 86 35 193 15 264 -7 22 -12 76 -12 120 -1 98 21 152 112 270
34 44 71 100 83 125 29 59 35 160 15 231 -9 29 -14 55 -12 58 8 8 200 -125
291 -202 49 -41 124 -111 166 -156 84 -88 105 -97 152 -60 19 15 26 29 26 57
0 33 -10 47 -128 162 -245 241 -521 410 -837 514 -250 81 -436 108 -721 104
l-200 -2 -45 36 c-80 66 -177 105 -285 116 l-66 7 -24 75 c-70 223 -260 402
-492 461 -100 25 -260 25 -358 -1z m325 -145 c211 -56 379 -244 407 -455 12
-87 24 -95 151 -95 96 0 114 -3 165 -27 197 -92 267 -337 148 -516 -46 -68
-107 -115 -186 -142 -55 -19 -89 -20 -829 -20 -740 0 -774 1 -829 20 -104 35
-181 108 -223 211 -29 70 -25 199 9 271 30 65 97 137 155 167 53 27 59 36 66
108 8 77 25 118 67 167 51 58 101 79 200 84 l85 4 55 57 c86 89 163 136 270
167 62 17 223 17 289 -1z m3405 -2767 c54 -48 73 -231 36 -350 -11 -36 -37
-91 -58 -124 -66 -101 -1027 -1200 -1059 -1211 -57 -20 -102 25 -88 89 10 42
689 1362 731 1419 67 92 156 151 276 183 81 22 132 20 162 -6z m-1054 -378
c161 -27 295 -51 297 -54 5 -5 -145 -306 -153 -306 -13 0 -629 223 -638 230
-8 8 59 115 88 139 16 14 82 40 102 41 6 0 143 -22 304 -50z m-2521 -311 c70
-16 149 -59 191 -106 25 -27 70 -104 121 -209 68 -141 89 -175 137 -223 72
-71 121 -88 297 -102 71 -5 155 -17 185 -25 188 -53 310 -250 310 -503 l0 -81
-27 0 c-94 0 -325 47 -478 96 -479 156 -890 499 -1143 956 l-32 58 40 40 c90
90 257 132 399 99z m3606 -422 c160 -262 160 -262 160 -322 0 -54 -4 -66 -43
-122 -23 -35 -47 -63 -51 -63 -9 0 -451 493 -453 506 -2 8 214 263 222 263 3
0 77 -118 165 -262z m-1343 -99 l147 -31 -46 -91 c-25 -50 -47 -92 -48 -94 -4
-5 -315 152 -315 159 0 16 46 63 74 75 40 17 20 19 188 -18z m668 -451 c39
-60 76 -122 82 -138 10 -31 -1 -78 -27 -113 -13 -17 -22 -11 -144 99 -72 64
-131 119 -131 122 0 14 134 153 140 146 4 -4 40 -57 80 -116z"/>
</g>
</svg>
